<?xml version="1.0" encoding="utf-8" standalone="no"?>
<!DOCTYPE svg PUBLIC "-//W3C//DTD SVG 1.1//EN"
  "http://www.w3.org/Graphics/SVG/1.1/DTD/svg11.dtd">
<svg xmlns:xlink="http://www.w3.org/1999/xlink" width="657.5275pt" height="313.4275pt" viewBox="0 0 657.5275 313.4275" xmlns="http://www.w3.org/2000/svg" version="1.1">
 <metadata>
  <rdf:RDF xmlns:dc="http://purl.org/dc/elements/1.1/" xmlns:cc="http://creativecommons.org/ns#" xmlns:rdf="http://www.w3.org/1999/02/22-rdf-syntax-ns#">
   <cc:Work>
    <dc:type rdf:resource="http://purl.org/dc/dcmitype/StillImage"/>
    <dc:date>2024-11-22T22:51:39.004311</dc:date>
    <dc:format>image/svg+xml</dc:format>
    <dc:creator>
     <cc:Agent>
      <dc:title>Matplotlib v3.5.2, https://matplotlib.org/</dc:title>
     </cc:Agent>
    </dc:creator>
   </cc:Work>
  </rdf:RDF>
 </metadata>
 <defs>
  <style type="text/css">*{stroke-linejoin: round; stroke-linecap: butt}</style>
 </defs>
 <g id="figure_1">
  <g id="patch_1">
   <path d="M 0 313.4275 
L 657.5275 313.4275 
L 657.5275 0 
L 0 0 
L 0 313.4275 
z
" style="fill: none"/>
  </g>
  <g id="axes_1">
   <g id="patch_2">
    <path d="M 92.3275 279 
L 650.3275 279 
L 650.3275 7.2 
L 92.3275 7.2 
z
" style="fill: #ffffff"/>
   </g>
   <g id="patch_3">
    <path d="M 97.798088 67.556451 
L 104.55189 67.556451 
L 104.55189 59.874497 
L 97.798088 59.874497 
z
" clip-path="url(#p7bb2b0d4ec)" style="fill: #5ab4ab; opacity: 0.8"/>
   </g>
   <g id="patch_4">
    <path d="M 104.55189 141.157998 
L 111.304675 141.157998 
L 111.304675 133.476044 
L 104.55189 133.476044 
z
" clip-path="url(#p7bb2b0d4ec)" style="fill: #fafdb7; opacity: 0.8"/>
   </g>
   <g id="patch_5">
    <path d="M 111.304675 251.560319 
L 118.059139 251.560319 
L 118.059139 243.878365 
L 111.304675 243.878365 
z
" clip-path="url(#p7bb2b0d4ec)" style="fill: #c72e4c; opacity: 0.8"/>
   </g>
   <g id="patch_6">
    <path d="M 118.059139 40.218733 
L 124.812771 40.218733 
L 124.812771 32.536779 
L 118.059139 32.536779 
z
" clip-path="url(#p7bb2b0d4ec)" style="fill: #4175b4; opacity: 0.8"/>
   </g>
   <g id="patch_7">
    <path d="M 124.812771 131.694942 
L 131.565893 131.694942 
L 131.565893 124.012988 
L 124.812771 124.012988 
z
" clip-path="url(#p7bb2b0d4ec)" style="fill: #f0f9a7; opacity: 0.8"/>
   </g>
   <g id="patch_8">
    <path d="M 131.565893 224.222602 
L 138.320455 224.222602 
L 138.320455 216.540648 
L 131.565893 216.540648 
z
" clip-path="url(#p7bb2b0d4ec)" style="fill: #ef6645; opacity: 0.8"/>
   </g>
   <g id="patch_9">
    <path d="M 138.320455 77.019507 
L 145.073375 77.019507 
L 145.073375 69.337553 
L 138.320455 69.337553 
z
" clip-path="url(#p7bb2b0d4ec)" style="fill: #71c6a5; opacity: 0.8"/>
   </g>
   <g id="patch_10">
    <path d="M 145.073375 162.187012 
L 151.82788 162.187012 
L 151.82788 154.505058 
L 145.073375 154.505058 
z
" clip-path="url(#p7bb2b0d4ec)" style="fill: #feec9f; opacity: 0.8"/>
   </g>
   <g id="patch_11">
    <path d="M 151.82788 216.862447 
L 158.581682 216.862447 
L 158.581682 209.180493 
L 151.82788 209.180493 
z
" clip-path="url(#p7bb2b0d4ec)" style="fill: #f57748; opacity: 0.8"/>
   </g>
   <g id="patch_12">
    <path d="M 158.581682 34.96148 
L 165.335352 34.96148 
L 165.335352 27.279526 
L 158.581682 27.279526 
z
" clip-path="url(#p7bb2b0d4ec)" style="fill: #4b68ae; opacity: 0.8"/>
   </g>
   <g id="patch_13">
    <path d="M 165.335352 90.688366 
L 172.089019 90.688366 
L 172.089019 83.006412 
L 165.335352 83.006412 
z
" clip-path="url(#p7bb2b0d4ec)" style="fill: #97d5a4; opacity: 0.8"/>
   </g>
   <g id="patch_14">
    <path d="M 172.089019 201.090687 
L 178.842833 201.090687 
L 178.842833 193.408733 
L 172.089019 193.408733 
z
" clip-path="url(#p7bb2b0d4ec)" style="fill: #fba05b; opacity: 0.8"/>
   </g>
   <g id="patch_15">
    <path d="M 178.842833 256.817573 
L 185.596551 256.817573 
L 185.596551 249.135619 
L 178.842833 249.135619 
z
" clip-path="url(#p7bb2b0d4ec)" style="fill: #bc2249; opacity: 0.8"/>
   </g>
   <g id="patch_16">
    <path d="M 185.596551 74.916606 
L 192.350418 74.916606 
L 192.350418 67.234652 
L 185.596551 67.234652 
z
" clip-path="url(#p7bb2b0d4ec)" style="fill: #6bc4a5; opacity: 0.8"/>
   </g>
   <g id="patch_17">
    <path d="M 192.350418 181.113124 
L 199.103216 181.113124 
L 199.103216 173.43117 
L 192.350418 173.43117 
z
" clip-path="url(#p7bb2b0d4ec)" style="fill: #fecc7b; opacity: 0.8"/>
   </g>
   <g id="patch_18">
    <path d="M 199.103216 255.766122 
L 205.857025 255.766122 
L 205.857025 248.084168 
L 199.103216 248.084168 
z
" clip-path="url(#p7bb2b0d4ec)" style="fill: #be254a; opacity: 0.8"/>
   </g>
   <g id="patch_19">
    <path d="M 205.857025 72.813704 
L 212.611393 72.813704 
L 212.611393 65.13175 
L 205.857025 65.13175 
z
" clip-path="url(#p7bb2b0d4ec)" style="fill: #66c2a5; opacity: 0.8"/>
   </g>
   <g id="patch_20">
    <path d="M 212.611393 204.245039 
L 219.364326 204.245039 
L 219.364326 196.563085 
L 212.611393 196.563085 
z
" clip-path="url(#p7bb2b0d4ec)" style="fill: #fa9857; opacity: 0.8"/>
   </g>
   <g id="patch_21">
    <path d="M 219.364326 128.54059 
L 226.118174 128.54059 
L 226.118174 120.858636 
L 219.364326 120.858636 
z
" clip-path="url(#p7bb2b0d4ec)" style="fill: #ecf7a1; opacity: 0.8"/>
   </g>
   <g id="patch_22">
    <path d="M 226.118174 49.681789 
L 232.871868 49.681789 
L 232.871868 41.999835 
L 226.118174 41.999835 
z
" clip-path="url(#p7bb2b0d4ec)" style="fill: #358bbc; opacity: 0.8"/>
   </g>
   <g id="patch_23">
    <path d="M 239.629568 266.280629 
L 246.383947 266.280629 
L 246.383947 258.598675 
L 239.629568 258.598675 
z
" clip-path="url(#p7bb2b0d4ec)" style="fill: #a70b44; opacity: 0.8"/>
   </g>
   <g id="patch_24">
    <path d="M 246.383947 119.077534 
L 253.137648 119.077534 
L 253.137648 111.39558 
L 246.383947 111.39558 
z
" clip-path="url(#p7bb2b0d4ec)" style="fill: #dff299; opacity: 0.8"/>
   </g>
   <g id="patch_25">
    <path d="M 253.137648 212.656644 
L 259.891391 212.656644 
L 259.891391 204.97469 
L 253.137648 204.97469 
z
" clip-path="url(#p7bb2b0d4ec)" style="fill: #f7814c; opacity: 0.8"/>
   </g>
   <g id="patch_26">
    <path d="M 259.891391 66.505 
L 266.645189 66.505 
L 266.645189 58.823046 
L 259.891391 58.823046 
z
" clip-path="url(#p7bb2b0d4ec)" style="fill: #58b2ac; opacity: 0.8"/>
   </g>
   <g id="patch_27">
    <path d="M 266.645189 134.849294 
L 273.398667 134.849294 
L 273.398667 127.16734 
L 266.645189 127.16734 
z
" clip-path="url(#p7bb2b0d4ec)" style="fill: #f3faac; opacity: 0.8"/>
   </g>
   <g id="patch_28">
    <path d="M 273.398667 248.405967 
L 280.152582 248.405967 
L 280.152582 240.724013 
L 273.398667 240.724013 
z
" clip-path="url(#p7bb2b0d4ec)" style="fill: #cd364d; opacity: 0.8"/>
   </g>
   <g id="patch_29">
    <path d="M 280.152582 33.910029 
L 286.906226 33.910029 
L 286.906226 26.228075 
L 280.152582 26.228075 
z
" clip-path="url(#p7bb2b0d4ec)" style="fill: #4d65ad; opacity: 0.8"/>
   </g>
   <g id="patch_30">
    <path d="M 286.906226 89.636915 
L 293.659205 89.636915 
L 293.659205 81.954961 
L 286.906226 81.954961 
z
" clip-path="url(#p7bb2b0d4ec)" style="fill: #94d4a4; opacity: 0.8"/>
   </g>
   <g id="patch_31">
    <path d="M 293.659205 189.524729 
L 300.41385 189.524729 
L 300.41385 181.842776 
L 293.659205 181.842776 
z
" clip-path="url(#p7bb2b0d4ec)" style="fill: #fdbb6c; opacity: 0.8"/>
   </g>
   <g id="patch_32">
    <path d="M 300.41385 250.508869 
L 307.16736 250.508869 
L 307.16736 242.826915 
L 300.41385 242.826915 
z
" clip-path="url(#p7bb2b0d4ec)" style="fill: #c9314c; opacity: 0.8"/>
   </g>
   <g id="patch_33">
    <path d="M 307.16736 60.196296 
L 313.920407 60.196296 
L 313.920407 52.514342 
L 307.16736 52.514342 
z
" clip-path="url(#p7bb2b0d4ec)" style="fill: #4ba4b1; opacity: 0.8"/>
   </g>
   <g id="patch_34">
    <path d="M 313.920407 184.267476 
L 320.674076 184.267476 
L 320.674076 176.585522 
L 313.920407 176.585522 
z
" clip-path="url(#p7bb2b0d4ec)" style="fill: #fdc776; opacity: 0.8"/>
   </g>
   <g id="patch_35">
    <path d="M 320.674076 124.334787 
L 327.42846 124.334787 
L 327.42846 116.652834 
L 320.674076 116.652834 
z
" clip-path="url(#p7bb2b0d4ec)" style="fill: #e8f69b; opacity: 0.8"/>
   </g>
   <g id="patch_36">
    <path d="M 327.42846 55.990493 
L 334.182342 55.990493 
L 334.182342 48.30854 
L 327.42846 48.30854 
z
" clip-path="url(#p7bb2b0d4ec)" style="fill: #4199b6; opacity: 0.8"/>
   </g>
   <g id="patch_37">
    <path d="M 334.182342 236.84001 
L 340.936185 236.84001 
L 340.936185 229.158056 
L 334.182342 229.158056 
z
" clip-path="url(#p7bb2b0d4ec)" style="fill: #df4e4b; opacity: 0.8"/>
   </g>
   <g id="patch_38">
    <path d="M 340.936185 151.672505 
L 347.689073 151.672505 
L 347.689073 143.990551 
L 340.936185 143.990551 
z
" clip-path="url(#p7bb2b0d4ec)" style="fill: #fffab6; opacity: 0.8"/>
   </g>
   <g id="patch_39">
    <path d="M 347.689073 59.144845 
L 354.442805 59.144845 
L 354.442805 51.462892 
L 347.689073 51.462892 
z
" clip-path="url(#p7bb2b0d4ec)" style="fill: #49a2b2; opacity: 0.8"/>
   </g>
   <g id="patch_40">
    <path d="M 354.442805 233.685658 
L 361.197118 233.685658 
L 361.197118 226.003704 
L 354.442805 226.003704 
z
" clip-path="url(#p7bb2b0d4ec)" style="fill: #e45549; opacity: 0.8"/>
   </g>
   <g id="patch_41">
    <path d="M 361.197118 150.621054 
L 367.950112 150.621054 
L 367.950112 142.9391 
L 361.197118 142.9391 
z
" clip-path="url(#p7bb2b0d4ec)" style="fill: #fffbb8; opacity: 0.8"/>
   </g>
   <g id="patch_42">
    <path d="M 367.950112 83.328211 
L 374.703858 83.328211 
L 374.703858 75.646257 
L 367.950112 75.646257 
z
" clip-path="url(#p7bb2b0d4ec)" style="fill: #84cea5; opacity: 0.8"/>
   </g>
   <g id="patch_43">
    <path d="M 374.703858 218.965348 
L 381.458455 218.965348 
L 381.458455 211.283394 
L 374.703858 211.283394 
z
" clip-path="url(#p7bb2b0d4ec)" style="fill: #f57245; opacity: 0.8"/>
   </g>
   <g id="patch_44">
    <path d="M 381.458455 159.03266 
L 388.212206 159.03266 
L 388.212206 151.350706 
L 381.458455 151.350706 
z
" clip-path="url(#p7bb2b0d4ec)" style="fill: #fff0a6; opacity: 0.8"/>
   </g>
   <g id="patch_45">
    <path d="M 388.212206 65.453549 
L 394.965963 65.453549 
L 394.965963 57.771596 
L 388.212206 57.771596 
z
" clip-path="url(#p7bb2b0d4ec)" style="fill: #56b0ad; opacity: 0.8"/>
   </g>
   <g id="patch_46">
    <path d="M 448.995711 221.06825 
L 455.748528 221.06825 
L 455.748528 213.386296 
L 448.995711 213.386296 
z
" clip-path="url(#p7bb2b0d4ec)" style="fill: #f46d43; opacity: 0.8"/>
   </g>
   <g id="patch_47">
    <path d="M 455.748528 121.180435 
L 462.502462 121.180435 
L 462.502462 113.498482 
L 455.748528 113.498482 
z
" clip-path="url(#p7bb2b0d4ec)" style="fill: #e4f498; opacity: 0.8"/>
   </g>
   <g id="patch_48">
    <path d="M 462.502462 48.630339 
L 469.256187 48.630339 
L 469.256187 40.948385 
L 462.502462 40.948385 
z
" clip-path="url(#p7bb2b0d4ec)" style="fill: #3389bd; opacity: 0.8"/>
   </g>
   <g id="patch_49">
    <path d="M 469.256187 198.987785 
L 476.010648 198.987785 
L 476.010648 191.305832 
L 469.256187 191.305832 
z
" clip-path="url(#p7bb2b0d4ec)" style="fill: #fca85e; opacity: 0.8"/>
   </g>
   <g id="patch_50">
    <path d="M 476.010648 108.563027 
L 482.764398 108.563027 
L 482.764398 100.881073 
L 476.010648 100.881073 
z
" clip-path="url(#p7bb2b0d4ec)" style="fill: #c6e89f; opacity: 0.8"/>
   </g>
   <g id="patch_51">
    <path d="M 482.764398 28.652776 
L 489.517333 28.652776 
L 489.517333 20.970822 
L 482.764398 20.970822 
z
" clip-path="url(#p7bb2b0d4ec)" style="fill: #555aa7; opacity: 0.8"/>
   </g>
   <g id="patch_52">
    <path d="M 489.517333 166.392814 
L 496.271799 166.392814 
L 496.271799 158.710861 
L 489.517333 158.710861 
z
" clip-path="url(#p7bb2b0d4ec)" style="fill: #fee695; opacity: 0.8"/>
   </g>
   <g id="patch_53">
    <path d="M 496.271799 100.151422 
L 503.029275 100.151422 
L 503.029275 92.469468 
L 496.271799 92.469468 
z
" clip-path="url(#p7bb2b0d4ec)" style="fill: #b1dfa3; opacity: 0.8"/>
   </g>
   <g id="patch_54">
    <path d="M 503.029275 46.527437 
L 509.782884 46.527437 
L 509.782884 38.845483 
L 503.029275 38.845483 
z
" clip-path="url(#p7bb2b0d4ec)" style="fill: #3682ba; opacity: 0.8"/>
   </g>
   <g id="patch_55">
    <path d="M 509.782884 232.634207 
L 516.536066 232.634207 
L 516.536066 224.952253 
L 509.782884 224.952253 
z
" clip-path="url(#p7bb2b0d4ec)" style="fill: #e55749; opacity: 0.8"/>
   </g>
   <g id="patch_56">
    <path d="M 516.536066 130.643491 
L 523.290485 130.643491 
L 523.290485 122.961538 
L 516.536066 122.961538 
z
" clip-path="url(#p7bb2b0d4ec)" style="fill: #eff9a6; opacity: 0.8"/>
   </g>
   <g id="patch_57">
    <path d="M 523.290485 24.446973 
L 530.043559 24.446973 
L 530.043559 16.765019 
L 523.290485 16.765019 
z
" clip-path="url(#p7bb2b0d4ec)" style="fill: #5c51a3; opacity: 0.8"/>
   </g>
   <g id="patch_58">
    <path d="M 530.043559 231.582756 
L 536.79725 231.582756 
L 536.79725 223.900803 
L 530.043559 223.900803 
z
" clip-path="url(#p7bb2b0d4ec)" style="fill: #e75948; opacity: 0.8"/>
   </g>
   <g id="patch_59">
    <path d="M 536.79725 143.2609 
L 543.551656 143.2609 
L 543.551656 135.578946 
L 536.79725 135.578946 
z
" clip-path="url(#p7bb2b0d4ec)" style="fill: #fcfeba; opacity: 0.8"/>
   </g>
   <g id="patch_60">
    <path d="M 543.551656 23.395522 
L 550.305336 23.395522 
L 550.305336 15.713569 
L 543.551656 15.713569 
z
" clip-path="url(#p7bb2b0d4ec)" style="fill: #5e4fa2; opacity: 0.8"/>
   </g>
   <g id="patch_61">
    <path d="M 550.305336 79.122408 
L 557.059109 79.122408 
L 557.059109 71.440454 
L 550.305336 71.440454 
z
" clip-path="url(#p7bb2b0d4ec)" style="fill: #76c8a5; opacity: 0.8"/>
   </g>
   <g id="patch_62">
    <path d="M 557.059109 183.216025 
L 563.812788 183.216025 
L 563.812788 175.534071 
L 557.059109 175.534071 
z
" clip-path="url(#p7bb2b0d4ec)" style="fill: #fec877; opacity: 0.8"/>
   </g>
   <g id="patch_63">
    <path d="M 570.566522 270.486431 
L 577.32052 270.486431 
L 577.32052 262.804478 
L 570.566522 262.804478 
z
" clip-path="url(#p7bb2b0d4ec)" style="fill: #9e0142; opacity: 0.8"/>
   </g>
   <g id="patch_64">
    <path d="M 577.32052 126.437689 
L 584.074188 126.437689 
L 584.074188 118.755735 
L 577.32052 118.755735 
z
" clip-path="url(#p7bb2b0d4ec)" style="fill: #eaf79e; opacity: 0.8"/>
   </g>
   <g id="patch_65">
    <path d="M 584.074188 70.710803 
L 590.827701 70.710803 
L 590.827701 63.028849 
L 584.074188 63.028849 
z
" clip-path="url(#p7bb2b0d4ec)" style="fill: #62bda7; opacity: 0.8"/>
   </g>
   <g id="patch_66">
    <path d="M 590.827701 208.450841 
L 597.581572 208.450841 
L 597.581572 200.768888 
L 590.827701 200.768888 
z
" clip-path="url(#p7bb2b0d4ec)" style="fill: #f98e52; opacity: 0.8"/>
   </g>
   <g id="patch_67">
    <path d="M 597.581572 149.569604 
L 604.334592 149.569604 
L 604.334592 141.88765 
L 597.581572 141.88765 
z
" clip-path="url(#p7bb2b0d4ec)" style="fill: #fffcba; opacity: 0.8"/>
   </g>
   <g id="patch_68">
    <path d="M 604.334592 93.842718 
L 611.089115 93.842718 
L 611.089115 86.160764 
L 604.334592 86.160764 
z
" clip-path="url(#p7bb2b0d4ec)" style="fill: #9fd8a4; opacity: 0.8"/>
   </g>
   <g id="patch_69">
    <path d="M 611.089115 42.321635 
L 617.842912 42.321635 
L 617.842912 34.639681 
L 611.089115 34.639681 
z
" clip-path="url(#p7bb2b0d4ec)" style="fill: #3d79b6; opacity: 0.8"/>
   </g>
   <g id="patch_70">
    <path d="M 617.842912 211.605194 
L 624.595641 211.605194 
L 624.595641 203.92324 
L 617.842912 203.92324 
z
" clip-path="url(#p7bb2b0d4ec)" style="fill: #f8864f; opacity: 0.8"/>
   </g>
   <g id="patch_71">
    <path d="M 624.595641 113.820281 
L 631.350113 113.820281 
L 631.350113 106.138327 
L 624.595641 106.138327 
z
" clip-path="url(#p7bb2b0d4ec)" style="fill: #d1ed9c; opacity: 0.8"/>
   </g>
   <g id="patch_72">
    <path d="M 631.350113 27.601325 
L 638.103873 27.601325 
L 638.103873 19.919371 
L 631.350113 19.919371 
z
" clip-path="url(#p7bb2b0d4ec)" style="fill: #5758a6; opacity: 0.8"/>
   </g>
   <g id="patch_73">
    <path d="M 638.103873 215.810996 
L 644.856912 215.810996 
L 644.856912 208.129042 
L 638.103873 208.129042 
z
" clip-path="url(#p7bb2b0d4ec)" style="fill: #f67a49; opacity: 0.8"/>
   </g>
   <g id="patch_74">
    <path d="M 644.856912 85.431112 
L 651.611417 85.431112 
L 651.611417 77.749159 
L 644.856912 77.749159 
z
" clip-path="url(#p7bb2b0d4ec)" style="fill: #89d0a4; opacity: 0.8"/>
   </g>
   <g id="matplotlib.axis_1">
    <g id="xtick_1"/>
    <g id="xtick_2"/>
    <g id="xtick_3"/>
    <g id="xtick_4"/>
    <g id="xtick_5"/>
    <g id="xtick_6"/>
    <g id="text_1">
     <!-- Time (s) -->
     <g transform="translate(322.538125 301.23625)scale(0.24 -0.24)">
      <defs>
       <path id="DejaVuSans-54" d="M -19 4666 
L 3928 4666 
L 3928 4134 
L 2272 4134 
L 2272 0 
L 1638 0 
L 1638 4134 
L -19 4134 
L -19 4666 
z
" transform="scale(0.015625)"/>
       <path id="DejaVuSans-69" d="M 603 3500 
L 1178 3500 
L 1178 0 
L 603 0 
L 603 3500 
z
M 603 4863 
L 1178 4863 
L 1178 4134 
L 603 4134 
L 603 4863 
z
" transform="scale(0.015625)"/>
       <path id="DejaVuSans-6d" d="M 3328 2828 
Q 3544 3216 3844 3400 
Q 4144 3584 4550 3584 
Q 5097 3584 5394 3201 
Q 5691 2819 5691 2113 
L 5691 0 
L 5113 0 
L 5113 2094 
Q 5113 2597 4934 2840 
Q 4756 3084 4391 3084 
Q 3944 3084 3684 2787 
Q 3425 2491 3425 1978 
L 3425 0 
L 2847 0 
L 2847 2094 
Q 2847 2600 2669 2842 
Q 2491 3084 2119 3084 
Q 1678 3084 1418 2786 
Q 1159 2488 1159 1978 
L 1159 0 
L 581 0 
L 581 3500 
L 1159 3500 
L 1159 2956 
Q 1356 3278 1631 3431 
Q 1906 3584 2284 3584 
Q 2666 3584 2933 3390 
Q 3200 3197 3328 2828 
z
" transform="scale(0.015625)"/>
       <path id="DejaVuSans-65" d="M 3597 1894 
L 3597 1613 
L 953 1613 
Q 991 1019 1311 708 
Q 1631 397 2203 397 
Q 2534 397 2845 478 
Q 3156 559 3463 722 
L 3463 178 
Q 3153 47 2828 -22 
Q 2503 -91 2169 -91 
Q 1331 -91 842 396 
Q 353 884 353 1716 
Q 353 2575 817 3079 
Q 1281 3584 2069 3584 
Q 2775 3584 3186 3129 
Q 3597 2675 3597 1894 
z
M 3022 2063 
Q 3016 2534 2758 2815 
Q 2500 3097 2075 3097 
Q 1594 3097 1305 2825 
Q 1016 2553 972 2059 
L 3022 2063 
z
" transform="scale(0.015625)"/>
       <path id="DejaVuSans-20" transform="scale(0.015625)"/>
       <path id="DejaVuSans-28" d="M 1984 4856 
Q 1566 4138 1362 3434 
Q 1159 2731 1159 2009 
Q 1159 1288 1364 580 
Q 1569 -128 1984 -844 
L 1484 -844 
Q 1016 -109 783 600 
Q 550 1309 550 2009 
Q 550 2706 781 3412 
Q 1013 4119 1484 4856 
L 1984 4856 
z
" transform="scale(0.015625)"/>
       <path id="DejaVuSans-73" d="M 2834 3397 
L 2834 2853 
Q 2591 2978 2328 3040 
Q 2066 3103 1784 3103 
Q 1356 3103 1142 2972 
Q 928 2841 928 2578 
Q 928 2378 1081 2264 
Q 1234 2150 1697 2047 
L 1894 2003 
Q 2506 1872 2764 1633 
Q 3022 1394 3022 966 
Q 3022 478 2636 193 
Q 2250 -91 1575 -91 
Q 1294 -91 989 -36 
Q 684 19 347 128 
L 347 722 
Q 666 556 975 473 
Q 1284 391 1588 391 
Q 1994 391 2212 530 
Q 2431 669 2431 922 
Q 2431 1156 2273 1281 
Q 2116 1406 1581 1522 
L 1381 1569 
Q 847 1681 609 1914 
Q 372 2147 372 2553 
Q 372 3047 722 3315 
Q 1072 3584 1716 3584 
Q 2034 3584 2315 3537 
Q 2597 3491 2834 3397 
z
" transform="scale(0.015625)"/>
       <path id="DejaVuSans-29" d="M 513 4856 
L 1013 4856 
Q 1481 4119 1714 3412 
Q 1947 2706 1947 2009 
Q 1947 1309 1714 600 
Q 1481 -109 1013 -844 
L 513 -844 
Q 928 -128 1133 580 
Q 1338 1288 1338 2009 
Q 1338 2731 1133 3434 
Q 928 4138 513 4856 
z
" transform="scale(0.015625)"/>
      </defs>
      <use xlink:href="#DejaVuSans-54"/>
      <use xlink:href="#DejaVuSans-69" x="57.958984"/>
      <use xlink:href="#DejaVuSans-6d" x="85.742188"/>
      <use xlink:href="#DejaVuSans-65" x="183.154297"/>
      <use xlink:href="#DejaVuSans-20" x="244.677734"/>
      <use xlink:href="#DejaVuSans-28" x="276.464844"/>
      <use xlink:href="#DejaVuSans-73" x="315.478516"/>
      <use xlink:href="#DejaVuSans-29" x="367.578125"/>
     </g>
    </g>
   </g>
   <g id="matplotlib.axis_2">
    <g id="ytick_1">
     <g id="line2d_1">
      <defs>
       <path id="m8c62462bee" d="M 0 0 
L -3.5 0 
" style="stroke: #000000; stroke-width: 0.8"/>
      </defs>
      <g>
       <use xlink:href="#m8c62462bee" x="92.3275" y="267.696905" style="stroke: #000000; stroke-width: 0.8"/>
      </g>
     </g>
     <g id="text_2">
      <!-- 200 -->
      <g transform="translate(47.1525 275.295343)scale(0.2 -0.2)">
       <defs>
        <path id="DejaVuSans-32" d="M 1228 531 
L 3431 531 
L 3431 0 
L 469 0 
L 469 531 
Q 828 903 1448 1529 
Q 2069 2156 2228 2338 
Q 2531 2678 2651 2914 
Q 2772 3150 2772 3378 
Q 2772 3750 2511 3984 
Q 2250 4219 1831 4219 
Q 1534 4219 1204 4116 
Q 875 4013 500 3803 
L 500 4441 
Q 881 4594 1212 4672 
Q 1544 4750 1819 4750 
Q 2544 4750 2975 4387 
Q 3406 4025 3406 3419 
Q 3406 3131 3298 2873 
Q 3191 2616 2906 2266 
Q 2828 2175 2409 1742 
Q 1991 1309 1228 531 
z
" transform="scale(0.015625)"/>
        <path id="DejaVuSans-30" d="M 2034 4250 
Q 1547 4250 1301 3770 
Q 1056 3291 1056 2328 
Q 1056 1369 1301 889 
Q 1547 409 2034 409 
Q 2525 409 2770 889 
Q 3016 1369 3016 2328 
Q 3016 3291 2770 3770 
Q 2525 4250 2034 4250 
z
M 2034 4750 
Q 2819 4750 3233 4129 
Q 3647 3509 3647 2328 
Q 3647 1150 3233 529 
Q 2819 -91 2034 -91 
Q 1250 -91 836 529 
Q 422 1150 422 2328 
Q 422 3509 836 4129 
Q 1250 4750 2034 4750 
z
" transform="scale(0.015625)"/>
       </defs>
       <use xlink:href="#DejaVuSans-32"/>
       <use xlink:href="#DejaVuSans-30" x="63.623047"/>
       <use xlink:href="#DejaVuSans-30" x="127.246094"/>
      </g>
     </g>
    </g>
    <g id="ytick_2">
     <g id="line2d_2">
      <g>
       <use xlink:href="#m8c62462bee" x="92.3275" y="16.400193" style="stroke: #000000; stroke-width: 0.8"/>
      </g>
     </g>
     <g id="text_3">
      <!-- 6000 -->
      <g transform="translate(34.4275 23.998631)scale(0.2 -0.2)">
       <defs>
        <path id="DejaVuSans-36" d="M 2113 2584 
Q 1688 2584 1439 2293 
Q 1191 2003 1191 1497 
Q 1191 994 1439 701 
Q 1688 409 2113 409 
Q 2538 409 2786 701 
Q 3034 994 3034 1497 
Q 3034 2003 2786 2293 
Q 2538 2584 2113 2584 
z
M 3366 4563 
L 3366 3988 
Q 3128 4100 2886 4159 
Q 2644 4219 2406 4219 
Q 1781 4219 1451 3797 
Q 1122 3375 1075 2522 
Q 1259 2794 1537 2939 
Q 1816 3084 2150 3084 
Q 2853 3084 3261 2657 
Q 3669 2231 3669 1497 
Q 3669 778 3244 343 
Q 2819 -91 2113 -91 
Q 1303 -91 875 529 
Q 447 1150 447 2328 
Q 447 3434 972 4092 
Q 1497 4750 2381 4750 
Q 2619 4750 2861 4703 
Q 3103 4656 3366 4563 
z
" transform="scale(0.015625)"/>
       </defs>
       <use xlink:href="#DejaVuSans-36"/>
       <use xlink:href="#DejaVuSans-30" x="63.623047"/>
       <use xlink:href="#DejaVuSans-30" x="127.246094"/>
       <use xlink:href="#DejaVuSans-30" x="190.869141"/>
      </g>
     </g>
    </g>
    <g id="text_4">
     <!-- Frequency (Hz) -->
     <g transform="translate(25.43625 233.59125)rotate(-90)scale(0.24 -0.24)">
      <defs>
       <path id="DejaVuSans-46" d="M 628 4666 
L 3309 4666 
L 3309 4134 
L 1259 4134 
L 1259 2759 
L 3109 2759 
L 3109 2228 
L 1259 2228 
L 1259 0 
L 628 0 
L 628 4666 
z
" transform="scale(0.015625)"/>
       <path id="DejaVuSans-72" d="M 2631 2963 
Q 2534 3019 2420 3045 
Q 2306 3072 2169 3072 
Q 1681 3072 1420 2755 
Q 1159 2438 1159 1844 
L 1159 0 
L 581 0 
L 581 3500 
L 1159 3500 
L 1159 2956 
Q 1341 3275 1631 3429 
Q 1922 3584 2338 3584 
Q 2397 3584 2469 3576 
Q 2541 3569 2628 3553 
L 2631 2963 
z
" transform="scale(0.015625)"/>
       <path id="DejaVuSans-71" d="M 947 1747 
Q 947 1113 1208 752 
Q 1469 391 1925 391 
Q 2381 391 2643 752 
Q 2906 1113 2906 1747 
Q 2906 2381 2643 2742 
Q 2381 3103 1925 3103 
Q 1469 3103 1208 2742 
Q 947 2381 947 1747 
z
M 2906 525 
Q 2725 213 2448 61 
Q 2172 -91 1784 -91 
Q 1150 -91 751 415 
Q 353 922 353 1747 
Q 353 2572 751 3078 
Q 1150 3584 1784 3584 
Q 2172 3584 2448 3432 
Q 2725 3281 2906 2969 
L 2906 3500 
L 3481 3500 
L 3481 -1331 
L 2906 -1331 
L 2906 525 
z
" transform="scale(0.015625)"/>
       <path id="DejaVuSans-75" d="M 544 1381 
L 544 3500 
L 1119 3500 
L 1119 1403 
Q 1119 906 1312 657 
Q 1506 409 1894 409 
Q 2359 409 2629 706 
Q 2900 1003 2900 1516 
L 2900 3500 
L 3475 3500 
L 3475 0 
L 2900 0 
L 2900 538 
Q 2691 219 2414 64 
Q 2138 -91 1772 -91 
Q 1169 -91 856 284 
Q 544 659 544 1381 
z
M 1991 3584 
L 1991 3584 
z
" transform="scale(0.015625)"/>
       <path id="DejaVuSans-6e" d="M 3513 2113 
L 3513 0 
L 2938 0 
L 2938 2094 
Q 2938 2591 2744 2837 
Q 2550 3084 2163 3084 
Q 1697 3084 1428 2787 
Q 1159 2491 1159 1978 
L 1159 0 
L 581 0 
L 581 3500 
L 1159 3500 
L 1159 2956 
Q 1366 3272 1645 3428 
Q 1925 3584 2291 3584 
Q 2894 3584 3203 3211 
Q 3513 2838 3513 2113 
z
" transform="scale(0.015625)"/>
       <path id="DejaVuSans-63" d="M 3122 3366 
L 3122 2828 
Q 2878 2963 2633 3030 
Q 2388 3097 2138 3097 
Q 1578 3097 1268 2742 
Q 959 2388 959 1747 
Q 959 1106 1268 751 
Q 1578 397 2138 397 
Q 2388 397 2633 464 
Q 2878 531 3122 666 
L 3122 134 
Q 2881 22 2623 -34 
Q 2366 -91 2075 -91 
Q 1284 -91 818 406 
Q 353 903 353 1747 
Q 353 2603 823 3093 
Q 1294 3584 2113 3584 
Q 2378 3584 2631 3529 
Q 2884 3475 3122 3366 
z
" transform="scale(0.015625)"/>
       <path id="DejaVuSans-79" d="M 2059 -325 
Q 1816 -950 1584 -1140 
Q 1353 -1331 966 -1331 
L 506 -1331 
L 506 -850 
L 844 -850 
Q 1081 -850 1212 -737 
Q 1344 -625 1503 -206 
L 1606 56 
L 191 3500 
L 800 3500 
L 1894 763 
L 2988 3500 
L 3597 3500 
L 2059 -325 
z
" transform="scale(0.015625)"/>
       <path id="DejaVuSans-48" d="M 628 4666 
L 1259 4666 
L 1259 2753 
L 3553 2753 
L 3553 4666 
L 4184 4666 
L 4184 0 
L 3553 0 
L 3553 2222 
L 1259 2222 
L 1259 0 
L 628 0 
L 628 4666 
z
" transform="scale(0.015625)"/>
       <path id="DejaVuSans-7a" d="M 353 3500 
L 3084 3500 
L 3084 2975 
L 922 459 
L 3084 459 
L 3084 0 
L 275 0 
L 275 525 
L 2438 3041 
L 353 3041 
L 353 3500 
z
" transform="scale(0.015625)"/>
      </defs>
      <use xlink:href="#DejaVuSans-46"/>
      <use xlink:href="#DejaVuSans-72" x="50.269531"/>
      <use xlink:href="#DejaVuSans-65" x="89.132812"/>
      <use xlink:href="#DejaVuSans-71" x="150.65625"/>
      <use xlink:href="#DejaVuSans-75" x="214.132812"/>
      <use xlink:href="#DejaVuSans-65" x="277.511719"/>
      <use xlink:href="#DejaVuSans-6e" x="339.035156"/>
      <use xlink:href="#DejaVuSans-63" x="402.414062"/>
      <use xlink:href="#DejaVuSans-79" x="457.394531"/>
      <use xlink:href="#DejaVuSans-20" x="516.574219"/>
      <use xlink:href="#DejaVuSans-28" x="548.361328"/>
      <use xlink:href="#DejaVuSans-48" x="587.375"/>
      <use xlink:href="#DejaVuSans-7a" x="662.570312"/>
      <use xlink:href="#DejaVuSans-29" x="715.060547"/>
     </g>
    </g>
   </g>
   <g id="patch_75">
    <path d="M 92.3275 279 
L 92.3275 7.2 
" style="fill: none; stroke: #000000; stroke-width: 4; stroke-linejoin: miter; stroke-linecap: square"/>
   </g>
   <g id="patch_76">
    <path d="M 92.3275 279 
L 650.3275 279 
" style="fill: none; stroke: #000000; stroke-width: 4; stroke-linejoin: miter; stroke-linecap: square"/>
   </g>
  </g>
 </g>
 <defs>
  <clipPath id="p7bb2b0d4ec">
   <rect x="92.3275" y="7.2" width="558" height="271.8"/>
  </clipPath>
 </defs>
</svg>
